<?xml version="1.0"?>
<svg xmlns="http://www.w3.org/2000/svg" id="Layer_1" data-name="Layer 1" viewBox="0 0 512 512" width="512" height="512" class=""><g><path d="M11,140.958a6,6,0,0,0,6-6V17H134.958a6,6,0,0,0,0-12H11a6,6,0,0,0-6,6V134.958A6,6,0,0,0,11,140.958Z" data-original="#000000" class="active-path" style="fill:#FFB229" data-old_color="#000000"/><path d="M134.958,495H17V377.042a6,6,0,0,0-12,0V501a6,6,0,0,0,6,6H134.958a6,6,0,0,0,0-12Z" data-original="#000000" class="active-path" style="fill:#FFB229" data-old_color="#000000"/><path d="M501,371.042a6,6,0,0,0-6,6V495H377.042a6,6,0,1,0,0,12H501a6,6,0,0,0,6-6V377.042A6,6,0,0,0,501,371.042Z" data-original="#000000" class="active-path" style="fill:#FFB229" data-old_color="#000000"/><path d="M501,5H377.042a6,6,0,0,0,0,12H495V134.958a6,6,0,0,0,12,0V11A6,6,0,0,0,501,5Z" data-original="#000000" class="active-path" style="fill:#FFB229" data-old_color="#000000"/><path d="M484.184,258.734a6,6,0,0,0,0-5.468,256.256,256.256,0,0,0-456.368,0,6,6,0,0,0,0,5.468,256.256,256.256,0,0,0,456.368,0ZM256,386.345A244.152,244.152,0,0,1,39.919,256a244.252,244.252,0,0,1,432.162,0A244.152,244.152,0,0,1,256,386.345Z" data-original="#000000" class="active-path" style="fill:#FFB229" data-old_color="#000000"/><path d="M295.593,243.916a6,6,0,0,0-5.378.022,16.212,16.212,0,0,1-7.391,1.754,16.535,16.535,0,0,1-16.516-16.516,16.219,16.219,0,0,1,1.754-7.392,6,6,0,0,0-4.275-8.612,43.5,43.5,0,1,0,35.041,35.039A6,6,0,0,0,295.593,243.916ZM256,287.526a31.526,31.526,0,0,1-1.313-63.025A28.549,28.549,0,0,0,287.5,257.312,31.564,31.564,0,0,1,256,287.526Z" data-original="#000000" class="active-path" style="fill:#FFB229" data-old_color="#000000"/><path d="M256,174.948A81.035,81.035,0,1,0,337.052,256,80.571,80.571,0,0,0,256,174.948Zm30.963,142.745A67.934,67.934,0,0,1,256,325.052,69.129,69.129,0,0,1,186.948,256,69.12,69.12,0,0,1,256,186.948a69.035,69.035,0,0,1,30.963,130.745Z" data-original="#000000" class="active-path" style="fill:#FFB229" data-old_color="#000000"/></g> </svg>
